<?xml version="1.0" encoding="UTF-8"?>
<svg xmlns="http://www.w3.org/2000/svg" xmlns:xlink="http://www.w3.org/1999/xlink" width="178.3875pt" height="200.253pt" viewBox="0 0 118.925 133.502" version="1.1">
<defs>
<clipPath id="clip1">
  <path d="M 0 0 L 53 0 L 53 133.503906 L 0 133.503906 Z M 0 0 "/>
</clipPath>
<clipPath id="clip2">
  <path d="M 27 64 L 118.925781 64 L 118.925781 133.503906 L 27 133.503906 Z M 27 64 "/>
</clipPath>
<clipPath id="clip3">
  <path d="M 38 75 L 118.925781 75 L 118.925781 130 L 38 130 Z M 38 75 "/>
</clipPath>
<clipPath id="clip4">
  <path d="M 0 38 L 118.925781 38 L 118.925781 133 L 0 133 Z M 0 38 "/>
</clipPath>
<clipPath id="clip5">
  <path d="M 116 43 L 118.925781 43 L 118.925781 46 L 116 46 Z M 116 43 "/>
</clipPath>
<clipPath id="clip6">
  <path d="M 86 54 L 118.925781 54 L 118.925781 104 L 86 104 Z M 86 54 "/>
</clipPath>
<clipPath id="clip7">
  <path d="M 97 66 L 118.925781 66 L 118.925781 93 L 97 93 Z M 97 66 "/>
</clipPath>
<clipPath id="clip8">
  <path d="M 86 40 L 118.925781 40 L 118.925781 90 L 86 90 Z M 86 40 "/>
</clipPath>
<clipPath id="clip9">
  <path d="M 97 51 L 118.925781 51 L 118.925781 79 L 97 79 Z M 97 51 "/>
</clipPath>
</defs>
<g id="surface1">
<g clip-path="url(#clip1)" clip-rule="nonzero">
<path style="fill:none;stroke-width:1.39478;stroke-linecap:butt;stroke-linejoin:miter;stroke:rgb(0%,0%,0%);stroke-opacity:1;stroke-miterlimit:10;" d="M -7.087281 2.19125 L -7.087281 -7.086094 C -7.087281 -18.140781 -35.434937 -18.140781 -35.434937 -7.086094 L -35.434937 99.214687 " transform="matrix(1,0,0,-1,39.974,100.41)"/>
</g>
<path style="fill:none;stroke-width:0.59776;stroke-linecap:butt;stroke-linejoin:miter;stroke:rgb(100%,100%,100%);stroke-opacity:1;stroke-miterlimit:10;" d="M -7.087281 2.19125 L -7.087281 -7.086094 C -7.087281 -18.140781 -35.434937 -18.140781 -35.434937 -7.086094 L -35.434937 99.214687 " transform="matrix(1,0,0,-1,39.974,100.41)"/>
<g clip-path="url(#clip2)" clip-rule="nonzero">
<path style="fill:none;stroke-width:1.39478;stroke-linecap:butt;stroke-linejoin:miter;stroke:rgb(0%,0%,0%);stroke-opacity:1;stroke-miterlimit:10;" d="M 70.865844 16.363125 L 70.865844 -7.086094 C 70.865844 -25.742344 7.0885 -25.742344 7.0885 -7.086094 L 7.0885 2.19125 " transform="matrix(1,0,0,-1,39.974,100.41)"/>
</g>
<g clip-path="url(#clip3)" clip-rule="nonzero">
<path style="fill:none;stroke-width:0.59776;stroke-linecap:butt;stroke-linejoin:miter;stroke:rgb(100%,100%,100%);stroke-opacity:1;stroke-miterlimit:10;" d="M 70.865844 16.363125 L 70.865844 -7.086094 C 70.865844 -25.742344 7.0885 -25.742344 7.0885 -7.086094 L 7.0885 2.19125 " transform="matrix(1,0,0,-1,39.974,100.41)"/>
</g>
<path style="fill:none;stroke-width:1.39478;stroke-linecap:butt;stroke-linejoin:miter;stroke:rgb(0%,0%,0%);stroke-opacity:1;stroke-miterlimit:10;" d="M -7.087281 99.214687 L -7.087281 61.589687 " transform="matrix(1,0,0,-1,39.974,100.41)"/>
<path style="fill:none;stroke-width:0.59776;stroke-linecap:butt;stroke-linejoin:miter;stroke:rgb(100%,100%,100%);stroke-opacity:1;stroke-miterlimit:10;" d="M -7.087281 99.214687 L -7.087281 61.589687 " transform="matrix(1,0,0,-1,39.974,100.41)"/>
<path style="fill:none;stroke-width:1.39478;stroke-linecap:butt;stroke-linejoin:miter;stroke:rgb(0%,0%,0%);stroke-opacity:1;stroke-miterlimit:10;" d="M -7.087281 51.796719 L -7.087281 40.327969 " transform="matrix(1,0,0,-1,39.974,100.41)"/>
<path style="fill:none;stroke-width:0.59776;stroke-linecap:butt;stroke-linejoin:miter;stroke:rgb(100%,100%,100%);stroke-opacity:1;stroke-miterlimit:10;" d="M -7.087281 51.796719 L -7.087281 40.327969 " transform="matrix(1,0,0,-1,39.974,100.41)"/>
<path style="fill:none;stroke-width:1.39478;stroke-linecap:butt;stroke-linejoin:miter;stroke:rgb(0%,0%,0%);stroke-opacity:1;stroke-miterlimit:10;" d="M -7.087281 30.538906 L -7.087281 11.980312 " transform="matrix(1,0,0,-1,39.974,100.41)"/>
<path style="fill:none;stroke-width:0.59776;stroke-linecap:butt;stroke-linejoin:miter;stroke:rgb(100%,100%,100%);stroke-opacity:1;stroke-miterlimit:10;" d="M -7.087281 30.538906 L -7.087281 11.980312 " transform="matrix(1,0,0,-1,39.974,100.41)"/>
<path style="fill:none;stroke-width:1.39478;stroke-linecap:butt;stroke-linejoin:miter;stroke:rgb(0%,0%,0%);stroke-opacity:1;stroke-miterlimit:10;" d="M 7.0885 11.980312 L 7.0885 16.363125 " transform="matrix(1,0,0,-1,39.974,100.41)"/>
<path style="fill:none;stroke-width:0.59776;stroke-linecap:butt;stroke-linejoin:miter;stroke:rgb(100%,100%,100%);stroke-opacity:1;stroke-miterlimit:10;" d="M 7.0885 11.980312 L 7.0885 16.363125 " transform="matrix(1,0,0,-1,39.974,100.41)"/>
<path style="fill:none;stroke-width:1.39478;stroke-linecap:butt;stroke-linejoin:miter;stroke:rgb(0%,0%,0%);stroke-opacity:1;stroke-miterlimit:10;" d="M 7.0885 26.156094 L 7.0885 51.796719 " transform="matrix(1,0,0,-1,39.974,100.41)"/>
<path style="fill:none;stroke-width:0.59776;stroke-linecap:butt;stroke-linejoin:miter;stroke:rgb(100%,100%,100%);stroke-opacity:1;stroke-miterlimit:10;" d="M 7.0885 26.156094 L 7.0885 51.796719 " transform="matrix(1,0,0,-1,39.974,100.41)"/>
<path style="fill:none;stroke-width:1.39478;stroke-linecap:butt;stroke-linejoin:miter;stroke:rgb(0%,0%,0%);stroke-opacity:1;stroke-miterlimit:10;" d="M -2.19275 56.695156 L 2.190063 56.695156 " transform="matrix(1,0,0,-1,39.974,100.41)"/>
<path style="fill:none;stroke-width:0.59776;stroke-linecap:butt;stroke-linejoin:miter;stroke:rgb(100%,100%,100%);stroke-opacity:1;stroke-miterlimit:10;" d="M -2.19275 56.695156 L 2.190063 56.695156 " transform="matrix(1,0,0,-1,39.974,100.41)"/>
<path style="fill:none;stroke-width:1.39478;stroke-linecap:butt;stroke-linejoin:miter;stroke:rgb(0%,0%,0%);stroke-opacity:1;stroke-miterlimit:10;" d="M -2.19275 7.085781 L 2.190063 7.085781 " transform="matrix(1,0,0,-1,39.974,100.41)"/>
<path style="fill:none;stroke-width:0.59776;stroke-linecap:butt;stroke-linejoin:miter;stroke:rgb(100%,100%,100%);stroke-opacity:1;stroke-miterlimit:10;" d="M -2.19275 7.085781 L 2.190063 7.085781 " transform="matrix(1,0,0,-1,39.974,100.41)"/>
<path style="fill:none;stroke-width:1.39478;stroke-linecap:butt;stroke-linejoin:miter;stroke:rgb(0%,0%,0%);stroke-opacity:1;stroke-miterlimit:10;" d="M 70.865844 30.538906 L 70.865844 26.156094 " transform="matrix(1,0,0,-1,39.974,100.41)"/>
<path style="fill:none;stroke-width:0.59776;stroke-linecap:butt;stroke-linejoin:miter;stroke:rgb(100%,100%,100%);stroke-opacity:1;stroke-miterlimit:10;" d="M 70.865844 30.538906 L 70.865844 26.156094 " transform="matrix(1,0,0,-1,39.974,100.41)"/>
<path style="fill:none;stroke-width:0.3985;stroke-linecap:butt;stroke-linejoin:miter;stroke:rgb(0%,0%,0%);stroke-opacity:1;stroke-miterlimit:10;" d="M -2.19275 35.433437 L 23.451781 35.433437 " transform="matrix(1,0,0,-1,39.974,100.41)"/>
<path style="fill:none;stroke-width:0.3985;stroke-linecap:butt;stroke-linejoin:miter;stroke:rgb(0%,0%,0%);stroke-opacity:1;stroke-miterlimit:10;" d="M 11.983031 21.261562 L 37.623656 21.261562 " transform="matrix(1,0,0,-1,39.974,100.41)"/>
<path style="fill:none;stroke-width:1.39478;stroke-linecap:butt;stroke-linejoin:miter;stroke:rgb(0%,0%,0%);stroke-opacity:1;stroke-miterlimit:10;" d="M 70.865844 40.327969 L 70.865844 99.214687 " transform="matrix(1,0,0,-1,39.974,100.41)"/>
<path style="fill:none;stroke-width:0.59776;stroke-linecap:butt;stroke-linejoin:miter;stroke:rgb(100%,100%,100%);stroke-opacity:1;stroke-miterlimit:10;" d="M 70.865844 40.327969 L 70.865844 99.214687 " transform="matrix(1,0,0,-1,39.974,100.41)"/>
<path style="fill:none;stroke-width:1.39478;stroke-linecap:butt;stroke-linejoin:miter;stroke:rgb(0%,0%,0%);stroke-opacity:1;stroke-miterlimit:10;" d="M 61.5885 21.261562 L 65.971313 21.261562 " transform="matrix(1,0,0,-1,39.974,100.41)"/>
<path style="fill:none;stroke-width:0.59776;stroke-linecap:butt;stroke-linejoin:miter;stroke:rgb(100%,100%,100%);stroke-opacity:1;stroke-miterlimit:10;" d="M 61.5885 21.261562 L 65.971313 21.261562 " transform="matrix(1,0,0,-1,39.974,100.41)"/>
<path style="fill:none;stroke-width:1.39478;stroke-linecap:butt;stroke-linejoin:miter;stroke:rgb(0%,0%,0%);stroke-opacity:1;stroke-miterlimit:10;" d="M 61.5885 35.433437 L 65.971313 35.433437 " transform="matrix(1,0,0,-1,39.974,100.41)"/>
<path style="fill:none;stroke-width:0.59776;stroke-linecap:butt;stroke-linejoin:miter;stroke:rgb(100%,100%,100%);stroke-opacity:1;stroke-miterlimit:10;" d="M 61.5885 35.433437 L 65.971313 35.433437 " transform="matrix(1,0,0,-1,39.974,100.41)"/>
<path style="fill:none;stroke-width:0.3985;stroke-linecap:butt;stroke-linejoin:miter;stroke:rgb(0%,0%,0%);stroke-opacity:1;stroke-miterlimit:10;" d="M 47.416625 21.261562 L 51.799438 21.261562 " transform="matrix(1,0,0,-1,39.974,100.41)"/>
<path style="fill:none;stroke-width:0.3985;stroke-linecap:butt;stroke-linejoin:miter;stroke:rgb(0%,0%,0%);stroke-opacity:1;stroke-miterlimit:10;" d="M 33.240844 35.433437 L 51.799438 35.433437 " transform="matrix(1,0,0,-1,39.974,100.41)"/>
<path style="fill:none;stroke-width:1.39478;stroke-linecap:butt;stroke-linejoin:miter;stroke:rgb(0%,0%,0%);stroke-opacity:1;stroke-miterlimit:10;" d="M 7.0885 61.589687 L 7.0885 65.9725 " transform="matrix(1,0,0,-1,39.974,100.41)"/>
<path style="fill:none;stroke-width:0.59776;stroke-linecap:butt;stroke-linejoin:miter;stroke:rgb(100%,100%,100%);stroke-opacity:1;stroke-miterlimit:10;" d="M 7.0885 61.589687 L 7.0885 65.9725 " transform="matrix(1,0,0,-1,39.974,100.41)"/>
<path style="fill:none;stroke-width:1.39478;stroke-linecap:butt;stroke-linejoin:miter;stroke:rgb(0%,0%,0%);stroke-opacity:1;stroke-miterlimit:10;" d="M 7.0885 75.761562 L 7.0885 80.144375 " transform="matrix(1,0,0,-1,39.974,100.41)"/>
<path style="fill:none;stroke-width:0.59776;stroke-linecap:butt;stroke-linejoin:miter;stroke:rgb(100%,100%,100%);stroke-opacity:1;stroke-miterlimit:10;" d="M 7.0885 75.761562 L 7.0885 80.144375 " transform="matrix(1,0,0,-1,39.974,100.41)"/>
<path style="fill:none;stroke-width:1.39478;stroke-linecap:butt;stroke-linejoin:miter;stroke:rgb(0%,0%,0%);stroke-opacity:1;stroke-miterlimit:10;" d="M 7.0885 89.937344 L 7.0885 99.214687 " transform="matrix(1,0,0,-1,39.974,100.41)"/>
<path style="fill:none;stroke-width:0.59776;stroke-linecap:butt;stroke-linejoin:miter;stroke:rgb(100%,100%,100%);stroke-opacity:1;stroke-miterlimit:10;" d="M 7.0885 89.937344 L 7.0885 99.214687 " transform="matrix(1,0,0,-1,39.974,100.41)"/>
<path style="fill:none;stroke-width:1.39478;stroke-linecap:butt;stroke-linejoin:miter;stroke:rgb(0%,0%,0%);stroke-opacity:1;stroke-miterlimit:10;" d="M 11.983031 85.038906 L 23.451781 85.038906 " transform="matrix(1,0,0,-1,39.974,100.41)"/>
<path style="fill:none;stroke-width:0.59776;stroke-linecap:butt;stroke-linejoin:miter;stroke:rgb(100%,100%,100%);stroke-opacity:1;stroke-miterlimit:10;" d="M 11.983031 85.038906 L 23.451781 85.038906 " transform="matrix(1,0,0,-1,39.974,100.41)"/>
<path style="fill:none;stroke-width:1.39478;stroke-linecap:butt;stroke-linejoin:miter;stroke:rgb(0%,0%,0%);stroke-opacity:1;stroke-miterlimit:10;" d="M 11.983031 70.867031 L 37.623656 70.867031 " transform="matrix(1,0,0,-1,39.974,100.41)"/>
<path style="fill:none;stroke-width:0.59776;stroke-linecap:butt;stroke-linejoin:miter;stroke:rgb(100%,100%,100%);stroke-opacity:1;stroke-miterlimit:10;" d="M 11.983031 70.867031 L 37.623656 70.867031 " transform="matrix(1,0,0,-1,39.974,100.41)"/>
<path style="fill:none;stroke-width:0.3985;stroke-linecap:butt;stroke-linejoin:miter;stroke:rgb(0%,0%,0%);stroke-opacity:1;stroke-miterlimit:10;" d="M 42.522094 65.9725 L 42.522094 26.156094 " transform="matrix(1,0,0,-1,39.974,100.41)"/>
<path style="fill:none;stroke-width:0.3985;stroke-linecap:butt;stroke-linejoin:miter;stroke:rgb(0%,0%,0%);stroke-opacity:1;stroke-miterlimit:10;" d="M 28.346313 40.327969 L 28.346313 80.144375 " transform="matrix(1,0,0,-1,39.974,100.41)"/>
<g clip-path="url(#clip4)" clip-rule="nonzero">
<path style="fill:none;stroke-width:0.3985;stroke-linecap:butt;stroke-linejoin:miter;stroke:rgb(50.193787%,50.193787%,50.193787%);stroke-opacity:1;stroke-dasharray:2.98883,2.98883;stroke-miterlimit:10;" d="M -38.977906 -0.00015625 L -38.977906 -10.629063 C -38.977906 -24.449375 -3.544312 -24.449375 -3.544312 -10.629063 L -3.544312 -0.00015625 L 3.541625 -0.00015625 L 3.541625 -10.629063 C 3.541625 -32.394688 77.951781 -32.394688 77.951781 -10.629063 L 77.951781 56.234219 " transform="matrix(1,0,0,-1,39.974,100.41)"/>
</g>
<g clip-path="url(#clip5)" clip-rule="nonzero">
<path style="fill:none;stroke-width:0.31879;stroke-linecap:round;stroke-linejoin:round;stroke:rgb(50.193787%,50.193787%,50.193787%);stroke-opacity:1;stroke-miterlimit:10;" d="M -1.196434 1.595689 C -1.094871 0.998032 -0.00112125 0.099595 0.29966 0.00193875 C -0.00112125 -0.0996238 -1.094871 -0.998061 -1.196434 -1.595718 " transform="matrix(0,-1,-1,0,117.92772,44.17466)"/>
</g>
<path style="fill:none;stroke-width:0.3985;stroke-linecap:butt;stroke-linejoin:miter;stroke:rgb(50.193787%,50.193787%,50.193787%);stroke-opacity:1;stroke-dasharray:2.98883,2.98883;stroke-miterlimit:10;" d="M -14.173219 70.867031 L -14.173219 56.695156 C -14.173219 52.769375 -11.009156 49.605312 -7.087281 49.605312 L 7.0885 49.605312 C 11.010375 49.605312 14.174438 52.769375 14.174438 56.695156 L 14.174438 98.75375 " transform="matrix(1,0,0,-1,39.974,100.41)"/>
<path style="fill:none;stroke-width:0.31879;stroke-linecap:round;stroke-linejoin:round;stroke:rgb(50.193787%,50.193787%,50.193787%);stroke-opacity:1;stroke-miterlimit:10;" d="M -1.197102 1.592702 C -1.09554 0.995046 -0.00179 0.100515 0.298991 -0.0010475 C -0.00179 -0.0987038 -1.09554 -0.997141 -1.197102 -1.594798 " transform="matrix(0,-1,-1,0,54.14739,1.65446)"/>
<path style="fill:none;stroke-width:0.3985;stroke-linecap:butt;stroke-linejoin:miter;stroke:rgb(50.193787%,50.193787%,50.193787%);stroke-opacity:1;stroke-dasharray:2.98883,2.98883;stroke-miterlimit:10;" d="M -14.173219 14.171719 L -14.173219 42.519375 L 21.260375 42.519375 L 21.260375 92.12875 L 63.779906 92.12875 L 63.779906 14.171719 Z M -14.173219 14.171719 " transform="matrix(1,0,0,-1,39.974,100.41)"/>
<path style="fill-rule:nonzero;fill:rgb(84.70459%,97.254944%,84.70459%);fill-opacity:1;stroke-width:1.39478;stroke-linecap:butt;stroke-linejoin:miter;stroke:rgb(0%,0%,0%);stroke-opacity:1;stroke-miterlimit:10;" d="M -2.391969 7.085781 C -2.391969 9.679531 -4.493531 11.781094 -7.087281 11.781094 C -9.681031 11.781094 -11.782594 9.679531 -11.782594 7.085781 C -11.782594 4.492031 -9.681031 2.390469 -7.087281 2.390469 C -4.493531 2.390469 -2.391969 4.492031 -2.391969 7.085781 Z M -2.391969 7.085781 " transform="matrix(1,0,0,-1,39.974,100.41)"/>
<path style="fill:none;stroke-width:0.59776;stroke-linecap:butt;stroke-linejoin:miter;stroke:rgb(100%,100%,100%);stroke-opacity:1;stroke-miterlimit:10;" d="M -2.391969 7.085781 C -2.391969 9.679531 -4.493531 11.781094 -7.087281 11.781094 C -9.681031 11.781094 -11.782594 9.679531 -11.782594 7.085781 C -11.782594 4.492031 -9.681031 2.390469 -7.087281 2.390469 C -4.493531 2.390469 -2.391969 4.492031 -2.391969 7.085781 Z M -2.391969 7.085781 " transform="matrix(1,0,0,-1,39.974,100.41)"/>
<path style="fill-rule:nonzero;fill:rgb(90.979004%,64.704895%,64.704895%);fill-opacity:1;stroke-width:1.39478;stroke-linecap:butt;stroke-linejoin:miter;stroke:rgb(0%,0%,0%);stroke-opacity:1;stroke-miterlimit:10;" d="M 11.783813 7.085781 C 11.783813 9.679531 9.68225 11.781094 7.0885 11.781094 C 4.49475 11.781094 2.389281 9.679531 2.389281 7.085781 C 2.389281 4.492031 4.49475 2.390469 7.0885 2.390469 C 9.68225 2.390469 11.783813 4.492031 11.783813 7.085781 Z M 11.783813 7.085781 " transform="matrix(1,0,0,-1,39.974,100.41)"/>
<path style="fill:none;stroke-width:0.59776;stroke-linecap:butt;stroke-linejoin:miter;stroke:rgb(100%,100%,100%);stroke-opacity:1;stroke-miterlimit:10;" d="M 11.783813 7.085781 C 11.783813 9.679531 9.68225 11.781094 7.0885 11.781094 C 4.49475 11.781094 2.389281 9.679531 2.389281 7.085781 C 2.389281 4.492031 4.49475 2.390469 7.0885 2.390469 C 9.68225 2.390469 11.783813 4.492031 11.783813 7.085781 Z M 11.783813 7.085781 " transform="matrix(1,0,0,-1,39.974,100.41)"/>
<path style="fill-rule:nonzero;fill:rgb(90.979004%,64.704895%,64.704895%);fill-opacity:1;stroke-width:0.3985;stroke-linecap:butt;stroke-linejoin:miter;stroke:rgb(0%,0%,0%);stroke-opacity:1;stroke-miterlimit:10;" d="M -2.391969 35.433437 C -2.391969 38.027187 -4.493531 40.12875 -7.087281 40.12875 C -9.681031 40.12875 -11.782594 38.027187 -11.782594 35.433437 C -11.782594 32.839687 -9.681031 30.738125 -7.087281 30.738125 C -4.493531 30.738125 -2.391969 32.839687 -2.391969 35.433437 Z M -2.391969 35.433437 " transform="matrix(1,0,0,-1,39.974,100.41)"/>
<path style="fill-rule:nonzero;fill:rgb(84.70459%,97.254944%,84.70459%);fill-opacity:1;stroke-width:0.3985;stroke-linecap:butt;stroke-linejoin:miter;stroke:rgb(0%,0%,0%);stroke-opacity:1;stroke-miterlimit:10;" d="M 11.783813 21.261562 C 11.783813 23.855312 9.68225 25.956875 7.0885 25.956875 C 4.49475 25.956875 2.389281 23.855312 2.389281 21.261562 C 2.389281 18.667812 4.49475 16.562344 7.0885 16.562344 C 9.68225 16.562344 11.783813 18.667812 11.783813 21.261562 Z M 11.783813 21.261562 " transform="matrix(1,0,0,-1,39.974,100.41)"/>
<path style="fill-rule:nonzero;fill:rgb(84.70459%,97.254944%,84.70459%);fill-opacity:1;stroke-width:1.39478;stroke-linecap:butt;stroke-linejoin:miter;stroke:rgb(0%,0%,0%);stroke-opacity:1;stroke-miterlimit:10;" d="M -2.391969 56.695156 C -2.391969 59.288906 -4.493531 61.390469 -7.087281 61.390469 C -9.681031 61.390469 -11.782594 59.288906 -11.782594 56.695156 C -11.782594 54.101406 -9.681031 51.995937 -7.087281 51.995937 C -4.493531 51.995937 -2.391969 54.101406 -2.391969 56.695156 Z M -2.391969 56.695156 " transform="matrix(1,0,0,-1,39.974,100.41)"/>
<path style="fill:none;stroke-width:0.59776;stroke-linecap:butt;stroke-linejoin:miter;stroke:rgb(100%,100%,100%);stroke-opacity:1;stroke-miterlimit:10;" d="M -2.391969 56.695156 C -2.391969 59.288906 -4.493531 61.390469 -7.087281 61.390469 C -9.681031 61.390469 -11.782594 59.288906 -11.782594 56.695156 C -11.782594 54.101406 -9.681031 51.995937 -7.087281 51.995937 C -4.493531 51.995937 -2.391969 54.101406 -2.391969 56.695156 Z M -2.391969 56.695156 " transform="matrix(1,0,0,-1,39.974,100.41)"/>
<path style="fill-rule:nonzero;fill:rgb(90.979004%,64.704895%,64.704895%);fill-opacity:1;stroke-width:1.39478;stroke-linecap:butt;stroke-linejoin:miter;stroke:rgb(0%,0%,0%);stroke-opacity:1;stroke-miterlimit:10;" d="M 11.783813 56.695156 C 11.783813 59.288906 9.68225 61.390469 7.0885 61.390469 C 4.49475 61.390469 2.389281 59.288906 2.389281 56.695156 C 2.389281 54.101406 4.49475 51.995937 7.0885 51.995937 C 9.68225 51.995937 11.783813 54.101406 11.783813 56.695156 Z M 11.783813 56.695156 " transform="matrix(1,0,0,-1,39.974,100.41)"/>
<path style="fill:none;stroke-width:0.59776;stroke-linecap:butt;stroke-linejoin:miter;stroke:rgb(100%,100%,100%);stroke-opacity:1;stroke-miterlimit:10;" d="M 11.783813 56.695156 C 11.783813 59.288906 9.68225 61.390469 7.0885 61.390469 C 4.49475 61.390469 2.389281 59.288906 2.389281 56.695156 C 2.389281 54.101406 4.49475 51.995937 7.0885 51.995937 C 9.68225 51.995937 11.783813 54.101406 11.783813 56.695156 Z M 11.783813 56.695156 " transform="matrix(1,0,0,-1,39.974,100.41)"/>
<path style=" stroke:none;fill-rule:nonzero;fill:rgb(90.979004%,64.704895%,64.704895%);fill-opacity:1;" d="M 115.539062 79.148438 C 115.539062 76.554688 113.433594 74.453125 110.839844 74.453125 C 108.246094 74.453125 106.144531 76.554688 106.144531 79.148438 C 106.144531 81.742188 108.246094 83.847656 110.839844 83.847656 C 113.433594 83.847656 115.539062 81.742188 115.539062 79.148438 Z M 115.539062 79.148438 "/>
<g clip-path="url(#clip6)" clip-rule="nonzero">
<path style="fill:none;stroke-width:1.39478;stroke-linecap:butt;stroke-linejoin:miter;stroke:rgb(0%,0%,0%);stroke-opacity:1;stroke-miterlimit:10;" d="M 75.565063 21.261562 C 75.565063 23.855312 73.459594 25.956875 70.865844 25.956875 C 68.272094 25.956875 66.170531 23.855312 66.170531 21.261562 C 66.170531 18.667812 68.272094 16.562344 70.865844 16.562344 C 73.459594 16.562344 75.565063 18.667812 75.565063 21.261562 Z M 75.565063 21.261562 " transform="matrix(1,0,0,-1,39.974,100.41)"/>
</g>
<g clip-path="url(#clip7)" clip-rule="nonzero">
<path style="fill:none;stroke-width:0.59776;stroke-linecap:butt;stroke-linejoin:miter;stroke:rgb(100%,100%,100%);stroke-opacity:1;stroke-miterlimit:10;" d="M 75.565063 21.261562 C 75.565063 23.855312 73.459594 25.956875 70.865844 25.956875 C 68.272094 25.956875 66.170531 23.855312 66.170531 21.261562 C 66.170531 18.667812 68.272094 16.562344 70.865844 16.562344 C 73.459594 16.562344 75.565063 18.667812 75.565063 21.261562 Z M 75.565063 21.261562 " transform="matrix(1,0,0,-1,39.974,100.41)"/>
</g>
<path style=" stroke:none;fill-rule:nonzero;fill:rgb(84.70459%,97.254944%,84.70459%);fill-opacity:1;" d="M 115.539062 64.976562 C 115.539062 62.382812 113.433594 60.28125 110.839844 60.28125 C 108.246094 60.28125 106.144531 62.382812 106.144531 64.976562 C 106.144531 67.570312 108.246094 69.671875 110.839844 69.671875 C 113.433594 69.671875 115.539062 67.570312 115.539062 64.976562 Z M 115.539062 64.976562 "/>
<g clip-path="url(#clip8)" clip-rule="nonzero">
<path style="fill:none;stroke-width:1.39478;stroke-linecap:butt;stroke-linejoin:miter;stroke:rgb(0%,0%,0%);stroke-opacity:1;stroke-miterlimit:10;" d="M 75.565063 35.433437 C 75.565063 38.027187 73.459594 40.12875 70.865844 40.12875 C 68.272094 40.12875 66.170531 38.027187 66.170531 35.433437 C 66.170531 32.839687 68.272094 30.738125 70.865844 30.738125 C 73.459594 30.738125 75.565063 32.839687 75.565063 35.433437 Z M 75.565063 35.433437 " transform="matrix(1,0,0,-1,39.974,100.41)"/>
</g>
<g clip-path="url(#clip9)" clip-rule="nonzero">
<path style="fill:none;stroke-width:0.59776;stroke-linecap:butt;stroke-linejoin:miter;stroke:rgb(100%,100%,100%);stroke-opacity:1;stroke-miterlimit:10;" d="M 75.565063 35.433437 C 75.565063 38.027187 73.459594 40.12875 70.865844 40.12875 C 68.272094 40.12875 66.170531 38.027187 66.170531 35.433437 C 66.170531 32.839687 68.272094 30.738125 70.865844 30.738125 C 73.459594 30.738125 75.565063 32.839687 75.565063 35.433437 Z M 75.565063 35.433437 " transform="matrix(1,0,0,-1,39.974,100.41)"/>
</g>
<path style="fill-rule:nonzero;fill:rgb(84.70459%,97.254944%,84.70459%);fill-opacity:1;stroke-width:0.3985;stroke-linecap:butt;stroke-linejoin:miter;stroke:rgb(0%,0%,0%);stroke-opacity:1;stroke-miterlimit:10;" d="M 47.217406 21.261562 C 47.217406 23.855312 45.115844 25.956875 42.522094 25.956875 C 39.928344 25.956875 37.822875 23.855312 37.822875 21.261562 C 37.822875 18.667812 39.928344 16.562344 42.522094 16.562344 C 45.115844 16.562344 47.217406 18.667812 47.217406 21.261562 Z M 47.217406 21.261562 " transform="matrix(1,0,0,-1,39.974,100.41)"/>
<path style="fill-rule:nonzero;fill:rgb(90.979004%,64.704895%,64.704895%);fill-opacity:1;stroke-width:0.3985;stroke-linecap:butt;stroke-linejoin:miter;stroke:rgb(0%,0%,0%);stroke-opacity:1;stroke-miterlimit:10;" d="M 33.041625 35.433437 C 33.041625 38.027187 30.940063 40.12875 28.346313 40.12875 C 25.752563 40.12875 23.651 38.027187 23.651 35.433437 C 23.651 32.839687 25.752563 30.738125 28.346313 30.738125 C 30.940063 30.738125 33.041625 32.839687 33.041625 35.433437 Z M 33.041625 35.433437 " transform="matrix(1,0,0,-1,39.974,100.41)"/>
<path style="fill-rule:nonzero;fill:rgb(90.979004%,64.704895%,64.704895%);fill-opacity:1;stroke-width:0.3985;stroke-linecap:butt;stroke-linejoin:miter;stroke:rgb(0%,0%,0%);stroke-opacity:1;stroke-miterlimit:10;" d="M 61.389281 35.433437 C 61.389281 38.027187 59.287719 40.12875 56.693969 40.12875 C 54.100219 40.12875 51.998656 38.027187 51.998656 35.433437 C 51.998656 32.839687 54.100219 30.738125 56.693969 30.738125 C 59.287719 30.738125 61.389281 32.839687 61.389281 35.433437 Z M 61.389281 35.433437 " transform="matrix(1,0,0,-1,39.974,100.41)"/>
<path style="fill-rule:nonzero;fill:rgb(84.70459%,97.254944%,84.70459%);fill-opacity:1;stroke-width:0.3985;stroke-linecap:butt;stroke-linejoin:miter;stroke:rgb(0%,0%,0%);stroke-opacity:1;stroke-miterlimit:10;" d="M 61.389281 21.261562 C 61.389281 23.855312 59.287719 25.956875 56.693969 25.956875 C 54.100219 25.956875 51.998656 23.855312 51.998656 21.261562 C 51.998656 18.667812 54.100219 16.562344 56.693969 16.562344 C 59.287719 16.562344 61.389281 18.667812 61.389281 21.261562 Z M 61.389281 21.261562 " transform="matrix(1,0,0,-1,39.974,100.41)"/>
<path style="fill-rule:nonzero;fill:rgb(90.979004%,64.704895%,64.704895%);fill-opacity:1;stroke-width:1.39478;stroke-linecap:butt;stroke-linejoin:miter;stroke:rgb(0%,0%,0%);stroke-opacity:1;stroke-miterlimit:10;" d="M 11.783813 70.867031 C 11.783813 73.460781 9.68225 75.562344 7.0885 75.562344 C 4.49475 75.562344 2.389281 73.460781 2.389281 70.867031 C 2.389281 68.273281 4.49475 66.171719 7.0885 66.171719 C 9.68225 66.171719 11.783813 68.273281 11.783813 70.867031 Z M 11.783813 70.867031 " transform="matrix(1,0,0,-1,39.974,100.41)"/>
<path style="fill:none;stroke-width:0.59776;stroke-linecap:butt;stroke-linejoin:miter;stroke:rgb(100%,100%,100%);stroke-opacity:1;stroke-miterlimit:10;" d="M 11.783813 70.867031 C 11.783813 73.460781 9.68225 75.562344 7.0885 75.562344 C 4.49475 75.562344 2.389281 73.460781 2.389281 70.867031 C 2.389281 68.273281 4.49475 66.171719 7.0885 66.171719 C 9.68225 66.171719 11.783813 68.273281 11.783813 70.867031 Z M 11.783813 70.867031 " transform="matrix(1,0,0,-1,39.974,100.41)"/>
<path style="fill-rule:nonzero;fill:rgb(84.70459%,97.254944%,84.70459%);fill-opacity:1;stroke-width:1.39478;stroke-linecap:butt;stroke-linejoin:miter;stroke:rgb(0%,0%,0%);stroke-opacity:1;stroke-miterlimit:10;" d="M 11.783813 85.038906 C 11.783813 87.632656 9.68225 89.738125 7.0885 89.738125 C 4.49475 89.738125 2.389281 87.632656 2.389281 85.038906 C 2.389281 82.445156 4.49475 80.343594 7.0885 80.343594 C 9.68225 80.343594 11.783813 82.445156 11.783813 85.038906 Z M 11.783813 85.038906 " transform="matrix(1,0,0,-1,39.974,100.41)"/>
<path style="fill:none;stroke-width:0.59776;stroke-linecap:butt;stroke-linejoin:miter;stroke:rgb(100%,100%,100%);stroke-opacity:1;stroke-miterlimit:10;" d="M 11.783813 85.038906 C 11.783813 87.632656 9.68225 89.738125 7.0885 89.738125 C 4.49475 89.738125 2.389281 87.632656 2.389281 85.038906 C 2.389281 82.445156 4.49475 80.343594 7.0885 80.343594 C 9.68225 80.343594 11.783813 82.445156 11.783813 85.038906 Z M 11.783813 85.038906 " transform="matrix(1,0,0,-1,39.974,100.41)"/>
<path style="fill-rule:nonzero;fill:rgb(84.70459%,97.254944%,84.70459%);fill-opacity:1;stroke-width:0.3985;stroke-linecap:butt;stroke-linejoin:miter;stroke:rgb(0%,0%,0%);stroke-opacity:1;stroke-miterlimit:10;" d="M 47.217406 70.867031 C 47.217406 73.460781 45.115844 75.562344 42.522094 75.562344 C 39.928344 75.562344 37.822875 73.460781 37.822875 70.867031 C 37.822875 68.273281 39.928344 66.171719 42.522094 66.171719 C 45.115844 66.171719 47.217406 68.273281 47.217406 70.867031 Z M 47.217406 70.867031 " transform="matrix(1,0,0,-1,39.974,100.41)"/>
<path style="fill-rule:nonzero;fill:rgb(90.979004%,64.704895%,64.704895%);fill-opacity:1;stroke-width:0.3985;stroke-linecap:butt;stroke-linejoin:miter;stroke:rgb(0%,0%,0%);stroke-opacity:1;stroke-miterlimit:10;" d="M 33.041625 85.038906 C 33.041625 87.632656 30.940063 89.738125 28.346313 89.738125 C 25.752563 89.738125 23.651 87.632656 23.651 85.038906 C 23.651 82.445156 25.752563 80.343594 28.346313 80.343594 C 30.940063 80.343594 33.041625 82.445156 33.041625 85.038906 Z M 33.041625 85.038906 " transform="matrix(1,0,0,-1,39.974,100.41)"/>
</g>
</svg>
