<?xml version="1.0" encoding="UTF-8"?>
<svg xmlns="http://www.w3.org/2000/svg" xmlns:xlink="http://www.w3.org/1999/xlink" width="167.7585pt" height="186.5145pt" viewBox="0 0 111.839 124.343" version="1.1">
<defs>
<clipPath id="clip1">
  <path d="M 0 0 L 53 0 L 53 124.34375 L 0 124.34375 Z M 0 0 "/>
</clipPath>
<clipPath id="clip2">
  <path d="M 27 57 L 111.839844 57 L 111.839844 124.34375 L 27 124.34375 Z M 27 57 "/>
</clipPath>
<clipPath id="clip3">
  <path d="M 38 68 L 111.839844 68 L 111.839844 122 L 38 122 Z M 38 68 "/>
</clipPath>
<clipPath id="clip4">
  <path d="M 0 38 L 111.839844 38 L 111.839844 124.34375 L 0 124.34375 Z M 0 38 "/>
</clipPath>
<clipPath id="clip5">
  <path d="M 109 43 L 111.839844 43 L 111.839844 46 L 109 46 Z M 109 43 "/>
</clipPath>
<clipPath id="clip6">
  <path d="M 79 47 L 111.839844 47 L 111.839844 97 L 79 97 Z M 79 47 "/>
</clipPath>
<clipPath id="clip7">
  <path d="M 90 58 L 111.839844 58 L 111.839844 86 L 90 86 Z M 90 58 "/>
</clipPath>
<clipPath id="clip8">
  <path d="M 79 33 L 111.839844 33 L 111.839844 83 L 79 83 Z M 79 33 "/>
</clipPath>
<clipPath id="clip9">
  <path d="M 90 44 L 111.839844 44 L 111.839844 72 L 90 72 Z M 90 44 "/>
</clipPath>
</defs>
<g id="surface1">
<g clip-path="url(#clip1)" clip-rule="nonzero">
<path style="fill:none;stroke-width:1.39478;stroke-linecap:butt;stroke-linejoin:miter;stroke:rgb(0%,0%,0%);stroke-opacity:1;stroke-miterlimit:10;" d="M -7.087281 2.190188 L -7.087281 -7.087156 C -7.087281 -18.141844 -35.434937 -18.141844 -35.434937 -7.087156 L -35.434937 92.127688 " transform="matrix(1,0,0,-1,39.974,93.323)"/>
</g>
<path style="fill:none;stroke-width:0.59776;stroke-linecap:butt;stroke-linejoin:miter;stroke:rgb(100%,100%,100%);stroke-opacity:1;stroke-miterlimit:10;" d="M -7.087281 2.190188 L -7.087281 -7.087156 C -7.087281 -18.141844 -35.434937 -18.141844 -35.434937 -7.087156 L -35.434937 92.127688 " transform="matrix(1,0,0,-1,39.974,93.323)"/>
<g clip-path="url(#clip2)" clip-rule="nonzero">
<path style="fill:none;stroke-width:1.39478;stroke-linecap:butt;stroke-linejoin:miter;stroke:rgb(0%,0%,0%);stroke-opacity:1;stroke-miterlimit:10;" d="M 63.779906 16.365969 L 63.779906 -7.087156 C 63.779906 -23.669187 7.0885 -23.669187 7.0885 -7.087156 L 7.0885 2.190188 " transform="matrix(1,0,0,-1,39.974,93.323)"/>
</g>
<g clip-path="url(#clip3)" clip-rule="nonzero">
<path style="fill:none;stroke-width:0.59776;stroke-linecap:butt;stroke-linejoin:miter;stroke:rgb(100%,100%,100%);stroke-opacity:1;stroke-miterlimit:10;" d="M 63.779906 16.365969 L 63.779906 -7.087156 C 63.779906 -23.669187 7.0885 -23.669187 7.0885 -7.087156 L 7.0885 2.190188 " transform="matrix(1,0,0,-1,39.974,93.323)"/>
</g>
<path style="fill:none;stroke-width:1.39478;stroke-linecap:butt;stroke-linejoin:miter;stroke:rgb(0%,0%,0%);stroke-opacity:1;stroke-miterlimit:10;" d="M -7.087281 92.127688 L -7.087281 54.502688 " transform="matrix(1,0,0,-1,39.974,93.323)"/>
<path style="fill:none;stroke-width:0.59776;stroke-linecap:butt;stroke-linejoin:miter;stroke:rgb(100%,100%,100%);stroke-opacity:1;stroke-miterlimit:10;" d="M -7.087281 92.127688 L -7.087281 54.502688 " transform="matrix(1,0,0,-1,39.974,93.323)"/>
<path style="fill:none;stroke-width:1.39478;stroke-linecap:butt;stroke-linejoin:miter;stroke:rgb(0%,0%,0%);stroke-opacity:1;stroke-miterlimit:10;" d="M -7.087281 44.709719 L -7.087281 40.330813 " transform="matrix(1,0,0,-1,39.974,93.323)"/>
<path style="fill:none;stroke-width:0.59776;stroke-linecap:butt;stroke-linejoin:miter;stroke:rgb(100%,100%,100%);stroke-opacity:1;stroke-miterlimit:10;" d="M -7.087281 44.709719 L -7.087281 40.330813 " transform="matrix(1,0,0,-1,39.974,93.323)"/>
<path style="fill:none;stroke-width:1.39478;stroke-linecap:butt;stroke-linejoin:miter;stroke:rgb(0%,0%,0%);stroke-opacity:1;stroke-miterlimit:10;" d="M -7.087281 30.537844 L -7.087281 11.983156 " transform="matrix(1,0,0,-1,39.974,93.323)"/>
<path style="fill:none;stroke-width:0.59776;stroke-linecap:butt;stroke-linejoin:miter;stroke:rgb(100%,100%,100%);stroke-opacity:1;stroke-miterlimit:10;" d="M -7.087281 30.537844 L -7.087281 11.983156 " transform="matrix(1,0,0,-1,39.974,93.323)"/>
<path style="fill:none;stroke-width:1.39478;stroke-linecap:butt;stroke-linejoin:miter;stroke:rgb(0%,0%,0%);stroke-opacity:1;stroke-miterlimit:10;" d="M 7.0885 11.983156 L 7.0885 16.365969 " transform="matrix(1,0,0,-1,39.974,93.323)"/>
<path style="fill:none;stroke-width:0.59776;stroke-linecap:butt;stroke-linejoin:miter;stroke:rgb(100%,100%,100%);stroke-opacity:1;stroke-miterlimit:10;" d="M 7.0885 11.983156 L 7.0885 16.365969 " transform="matrix(1,0,0,-1,39.974,93.323)"/>
<path style="fill:none;stroke-width:1.39478;stroke-linecap:butt;stroke-linejoin:miter;stroke:rgb(0%,0%,0%);stroke-opacity:1;stroke-miterlimit:10;" d="M 7.0885 26.155031 L 7.0885 44.709719 " transform="matrix(1,0,0,-1,39.974,93.323)"/>
<path style="fill:none;stroke-width:0.59776;stroke-linecap:butt;stroke-linejoin:miter;stroke:rgb(100%,100%,100%);stroke-opacity:1;stroke-miterlimit:10;" d="M 7.0885 26.155031 L 7.0885 44.709719 " transform="matrix(1,0,0,-1,39.974,93.323)"/>
<path style="fill:none;stroke-width:1.39478;stroke-linecap:butt;stroke-linejoin:miter;stroke:rgb(0%,0%,0%);stroke-opacity:1;stroke-miterlimit:10;" d="M -2.19275 49.608156 L 2.190063 49.608156 " transform="matrix(1,0,0,-1,39.974,93.323)"/>
<path style="fill:none;stroke-width:0.59776;stroke-linecap:butt;stroke-linejoin:miter;stroke:rgb(100%,100%,100%);stroke-opacity:1;stroke-miterlimit:10;" d="M -2.19275 49.608156 L 2.190063 49.608156 " transform="matrix(1,0,0,-1,39.974,93.323)"/>
<path style="fill:none;stroke-width:1.39478;stroke-linecap:butt;stroke-linejoin:miter;stroke:rgb(0%,0%,0%);stroke-opacity:1;stroke-miterlimit:10;" d="M -2.19275 7.088625 L 2.190063 7.088625 " transform="matrix(1,0,0,-1,39.974,93.323)"/>
<path style="fill:none;stroke-width:0.59776;stroke-linecap:butt;stroke-linejoin:miter;stroke:rgb(100%,100%,100%);stroke-opacity:1;stroke-miterlimit:10;" d="M -2.19275 7.088625 L 2.190063 7.088625 " transform="matrix(1,0,0,-1,39.974,93.323)"/>
<path style="fill:none;stroke-width:1.39478;stroke-linecap:butt;stroke-linejoin:miter;stroke:rgb(0%,0%,0%);stroke-opacity:1;stroke-miterlimit:10;" d="M 63.779906 30.537844 L 63.779906 26.155031 " transform="matrix(1,0,0,-1,39.974,93.323)"/>
<path style="fill:none;stroke-width:0.59776;stroke-linecap:butt;stroke-linejoin:miter;stroke:rgb(100%,100%,100%);stroke-opacity:1;stroke-miterlimit:10;" d="M 63.779906 30.537844 L 63.779906 26.155031 " transform="matrix(1,0,0,-1,39.974,93.323)"/>
<path style="fill:none;stroke-width:0.3985;stroke-linecap:butt;stroke-linejoin:miter;stroke:rgb(0%,0%,0%);stroke-opacity:1;stroke-miterlimit:10;" d="M -2.19275 35.432375 L 16.365844 35.432375 " transform="matrix(1,0,0,-1,39.974,93.323)"/>
<path style="fill:none;stroke-width:0.3985;stroke-linecap:butt;stroke-linejoin:miter;stroke:rgb(0%,0%,0%);stroke-opacity:1;stroke-miterlimit:10;" d="M 11.983031 21.2605 L 30.537719 21.2605 " transform="matrix(1,0,0,-1,39.974,93.323)"/>
<path style="fill:none;stroke-width:1.39478;stroke-linecap:butt;stroke-linejoin:miter;stroke:rgb(0%,0%,0%);stroke-opacity:1;stroke-miterlimit:10;" d="M 63.779906 40.330813 L 63.779906 92.127688 " transform="matrix(1,0,0,-1,39.974,93.323)"/>
<path style="fill:none;stroke-width:0.59776;stroke-linecap:butt;stroke-linejoin:miter;stroke:rgb(100%,100%,100%);stroke-opacity:1;stroke-miterlimit:10;" d="M 63.779906 40.330813 L 63.779906 92.127688 " transform="matrix(1,0,0,-1,39.974,93.323)"/>
<path style="fill:none;stroke-width:1.39478;stroke-linecap:butt;stroke-linejoin:miter;stroke:rgb(0%,0%,0%);stroke-opacity:1;stroke-miterlimit:10;" d="M 54.502563 21.2605 L 58.885375 21.2605 " transform="matrix(1,0,0,-1,39.974,93.323)"/>
<path style="fill:none;stroke-width:0.59776;stroke-linecap:butt;stroke-linejoin:miter;stroke:rgb(100%,100%,100%);stroke-opacity:1;stroke-miterlimit:10;" d="M 54.502563 21.2605 L 58.885375 21.2605 " transform="matrix(1,0,0,-1,39.974,93.323)"/>
<path style="fill:none;stroke-width:1.39478;stroke-linecap:butt;stroke-linejoin:miter;stroke:rgb(0%,0%,0%);stroke-opacity:1;stroke-miterlimit:10;" d="M 54.502563 35.432375 L 58.885375 35.432375 " transform="matrix(1,0,0,-1,39.974,93.323)"/>
<path style="fill:none;stroke-width:0.59776;stroke-linecap:butt;stroke-linejoin:miter;stroke:rgb(100%,100%,100%);stroke-opacity:1;stroke-miterlimit:10;" d="M 54.502563 35.432375 L 58.885375 35.432375 " transform="matrix(1,0,0,-1,39.974,93.323)"/>
<path style="fill:none;stroke-width:0.3985;stroke-linecap:butt;stroke-linejoin:miter;stroke:rgb(0%,0%,0%);stroke-opacity:1;stroke-miterlimit:10;" d="M 40.330688 21.2605 L 44.709594 21.2605 " transform="matrix(1,0,0,-1,39.974,93.323)"/>
<path style="fill:none;stroke-width:0.3985;stroke-linecap:butt;stroke-linejoin:miter;stroke:rgb(0%,0%,0%);stroke-opacity:1;stroke-miterlimit:10;" d="M 26.154906 35.432375 L 44.709594 35.432375 " transform="matrix(1,0,0,-1,39.974,93.323)"/>
<path style="fill:none;stroke-width:1.39478;stroke-linecap:butt;stroke-linejoin:miter;stroke:rgb(0%,0%,0%);stroke-opacity:1;stroke-miterlimit:10;" d="M 7.0885 54.502688 L 7.0885 58.8855 " transform="matrix(1,0,0,-1,39.974,93.323)"/>
<path style="fill:none;stroke-width:0.59776;stroke-linecap:butt;stroke-linejoin:miter;stroke:rgb(100%,100%,100%);stroke-opacity:1;stroke-miterlimit:10;" d="M 7.0885 54.502688 L 7.0885 58.8855 " transform="matrix(1,0,0,-1,39.974,93.323)"/>
<path style="fill:none;stroke-width:1.39478;stroke-linecap:butt;stroke-linejoin:miter;stroke:rgb(0%,0%,0%);stroke-opacity:1;stroke-miterlimit:10;" d="M 7.0885 68.674563 L 7.0885 73.057375 " transform="matrix(1,0,0,-1,39.974,93.323)"/>
<path style="fill:none;stroke-width:0.59776;stroke-linecap:butt;stroke-linejoin:miter;stroke:rgb(100%,100%,100%);stroke-opacity:1;stroke-miterlimit:10;" d="M 7.0885 68.674563 L 7.0885 73.057375 " transform="matrix(1,0,0,-1,39.974,93.323)"/>
<path style="fill:none;stroke-width:1.39478;stroke-linecap:butt;stroke-linejoin:miter;stroke:rgb(0%,0%,0%);stroke-opacity:1;stroke-miterlimit:10;" d="M 7.0885 82.850344 L 7.0885 92.127688 " transform="matrix(1,0,0,-1,39.974,93.323)"/>
<path style="fill:none;stroke-width:0.59776;stroke-linecap:butt;stroke-linejoin:miter;stroke:rgb(100%,100%,100%);stroke-opacity:1;stroke-miterlimit:10;" d="M 7.0885 82.850344 L 7.0885 92.127688 " transform="matrix(1,0,0,-1,39.974,93.323)"/>
<path style="fill:none;stroke-width:1.39478;stroke-linecap:butt;stroke-linejoin:miter;stroke:rgb(0%,0%,0%);stroke-opacity:1;stroke-miterlimit:10;" d="M 11.983031 77.951906 L 16.365844 77.951906 " transform="matrix(1,0,0,-1,39.974,93.323)"/>
<path style="fill:none;stroke-width:0.59776;stroke-linecap:butt;stroke-linejoin:miter;stroke:rgb(100%,100%,100%);stroke-opacity:1;stroke-miterlimit:10;" d="M 11.983031 77.951906 L 16.365844 77.951906 " transform="matrix(1,0,0,-1,39.974,93.323)"/>
<path style="fill:none;stroke-width:1.39478;stroke-linecap:butt;stroke-linejoin:miter;stroke:rgb(0%,0%,0%);stroke-opacity:1;stroke-miterlimit:10;" d="M 11.983031 63.780031 L 30.537719 63.780031 " transform="matrix(1,0,0,-1,39.974,93.323)"/>
<path style="fill:none;stroke-width:0.59776;stroke-linecap:butt;stroke-linejoin:miter;stroke:rgb(100%,100%,100%);stroke-opacity:1;stroke-miterlimit:10;" d="M 11.983031 63.780031 L 30.537719 63.780031 " transform="matrix(1,0,0,-1,39.974,93.323)"/>
<path style="fill:none;stroke-width:0.3985;stroke-linecap:butt;stroke-linejoin:miter;stroke:rgb(0%,0%,0%);stroke-opacity:1;stroke-miterlimit:10;" d="M 35.43225 58.8855 L 35.43225 26.155031 " transform="matrix(1,0,0,-1,39.974,93.323)"/>
<path style="fill:none;stroke-width:0.3985;stroke-linecap:butt;stroke-linejoin:miter;stroke:rgb(0%,0%,0%);stroke-opacity:1;stroke-miterlimit:10;" d="M 21.260375 40.330813 L 21.260375 73.057375 " transform="matrix(1,0,0,-1,39.974,93.323)"/>
<g clip-path="url(#clip4)" clip-rule="nonzero">
<path style="fill:none;stroke-width:0.3985;stroke-linecap:butt;stroke-linejoin:miter;stroke:rgb(50.193787%,50.193787%,50.193787%);stroke-opacity:1;stroke-dasharray:2.98883,2.98883;stroke-miterlimit:10;" d="M -38.977906 -0.00121875 L -38.977906 -10.630125 C -38.977906 -24.446531 -3.544312 -24.446531 -3.544312 -10.630125 L -3.544312 -0.00121875 L 3.541625 -0.00121875 L 3.541625 -10.630125 C 3.541625 -30.321531 70.865844 -30.321531 70.865844 -10.630125 L 70.865844 49.147219 " transform="matrix(1,0,0,-1,39.974,93.323)"/>
</g>
<g clip-path="url(#clip5)" clip-rule="nonzero">
<path style="fill:none;stroke-width:0.31879;stroke-linecap:round;stroke-linejoin:round;stroke:rgb(50.193787%,50.193787%,50.193787%);stroke-opacity:1;stroke-miterlimit:10;" d="M -1.196714 1.594906 C -1.095151 0.99725 -0.00140125 0.0988125 0.29938 0.00115625 C -0.00140125 -0.100406 -1.095151 -0.994937 -1.196714 -1.592594 " transform="matrix(0,-1,-1,0,110.841,44.17438)"/>
</g>
<path style="fill:none;stroke-width:0.3985;stroke-linecap:butt;stroke-linejoin:miter;stroke:rgb(50.193787%,50.193787%,50.193787%);stroke-opacity:1;stroke-dasharray:2.98883,2.98883;stroke-miterlimit:10;" d="M -14.173219 63.780031 L -14.173219 49.608156 C -14.173219 45.682375 -11.009156 42.518313 -7.087281 42.518313 L 7.0885 42.518313 C 11.010375 42.518313 14.174438 45.682375 14.174438 49.608156 L 14.174438 91.670656 " transform="matrix(1,0,0,-1,39.974,93.323)"/>
<path style="fill:none;stroke-width:0.31879;stroke-linecap:round;stroke-linejoin:round;stroke:rgb(50.193787%,50.193787%,50.193787%);stroke-opacity:1;stroke-miterlimit:10;" d="M -1.197402 1.592702 C -1.09584 0.995046 0.00181625 0.100515 0.298691 -0.0010475 C 0.00181625 -0.0987038 -1.09584 -0.997141 -1.197402 -1.594798 " transform="matrix(0,-1,-1,0,54.14739,1.65416)"/>
<path style="fill-rule:nonzero;fill:rgb(84.70459%,97.254944%,84.70459%);fill-opacity:1;stroke-width:1.39478;stroke-linecap:butt;stroke-linejoin:miter;stroke:rgb(0%,0%,0%);stroke-opacity:1;stroke-miterlimit:10;" d="M -2.391969 7.088625 C -2.391969 9.678469 -4.493531 11.783938 -7.087281 11.783938 C -9.681031 11.783938 -11.782594 9.678469 -11.782594 7.088625 C -11.782594 4.494875 -9.681031 2.389406 -7.087281 2.389406 C -4.493531 2.389406 -2.391969 4.494875 -2.391969 7.088625 Z M -2.391969 7.088625 " transform="matrix(1,0,0,-1,39.974,93.323)"/>
<path style="fill:none;stroke-width:0.59776;stroke-linecap:butt;stroke-linejoin:miter;stroke:rgb(100%,100%,100%);stroke-opacity:1;stroke-miterlimit:10;" d="M -2.391969 7.088625 C -2.391969 9.678469 -4.493531 11.783938 -7.087281 11.783938 C -9.681031 11.783938 -11.782594 9.678469 -11.782594 7.088625 C -11.782594 4.494875 -9.681031 2.389406 -7.087281 2.389406 C -4.493531 2.389406 -2.391969 4.494875 -2.391969 7.088625 Z M -2.391969 7.088625 " transform="matrix(1,0,0,-1,39.974,93.323)"/>
<path style="fill-rule:nonzero;fill:rgb(90.979004%,64.704895%,64.704895%);fill-opacity:1;stroke-width:1.39478;stroke-linecap:butt;stroke-linejoin:miter;stroke:rgb(0%,0%,0%);stroke-opacity:1;stroke-miterlimit:10;" d="M 11.783813 7.088625 C 11.783813 9.678469 9.68225 11.783938 7.0885 11.783938 C 4.49475 11.783938 2.389281 9.678469 2.389281 7.088625 C 2.389281 4.494875 4.49475 2.389406 7.0885 2.389406 C 9.68225 2.389406 11.783813 4.494875 11.783813 7.088625 Z M 11.783813 7.088625 " transform="matrix(1,0,0,-1,39.974,93.323)"/>
<path style="fill:none;stroke-width:0.59776;stroke-linecap:butt;stroke-linejoin:miter;stroke:rgb(100%,100%,100%);stroke-opacity:1;stroke-miterlimit:10;" d="M 11.783813 7.088625 C 11.783813 9.678469 9.68225 11.783938 7.0885 11.783938 C 4.49475 11.783938 2.389281 9.678469 2.389281 7.088625 C 2.389281 4.494875 4.49475 2.389406 7.0885 2.389406 C 9.68225 2.389406 11.783813 4.494875 11.783813 7.088625 Z M 11.783813 7.088625 " transform="matrix(1,0,0,-1,39.974,93.323)"/>
<path style="fill-rule:nonzero;fill:rgb(90.979004%,64.704895%,64.704895%);fill-opacity:1;stroke-width:0.3985;stroke-linecap:butt;stroke-linejoin:miter;stroke:rgb(0%,0%,0%);stroke-opacity:1;stroke-miterlimit:10;" d="M -2.391969 35.432375 C -2.391969 38.026125 -4.493531 40.131594 -7.087281 40.131594 C -9.681031 40.131594 -11.782594 38.026125 -11.782594 35.432375 C -11.782594 32.838625 -9.681031 30.737063 -7.087281 30.737063 C -4.493531 30.737063 -2.391969 32.838625 -2.391969 35.432375 Z M -2.391969 35.432375 " transform="matrix(1,0,0,-1,39.974,93.323)"/>
<path style="fill-rule:nonzero;fill:rgb(84.70459%,97.254944%,84.70459%);fill-opacity:1;stroke-width:0.3985;stroke-linecap:butt;stroke-linejoin:miter;stroke:rgb(0%,0%,0%);stroke-opacity:1;stroke-miterlimit:10;" d="M 11.783813 21.2605 C 11.783813 23.85425 9.68225 25.955813 7.0885 25.955813 C 4.49475 25.955813 2.389281 23.85425 2.389281 21.2605 C 2.389281 18.66675 4.49475 16.565188 7.0885 16.565188 C 9.68225 16.565188 11.783813 18.66675 11.783813 21.2605 Z M 11.783813 21.2605 " transform="matrix(1,0,0,-1,39.974,93.323)"/>
<path style="fill-rule:nonzero;fill:rgb(84.70459%,97.254944%,84.70459%);fill-opacity:1;stroke-width:1.39478;stroke-linecap:butt;stroke-linejoin:miter;stroke:rgb(0%,0%,0%);stroke-opacity:1;stroke-miterlimit:10;" d="M -2.391969 49.608156 C -2.391969 52.201906 -4.493531 54.303469 -7.087281 54.303469 C -9.681031 54.303469 -11.782594 52.201906 -11.782594 49.608156 C -11.782594 47.014406 -9.681031 44.908938 -7.087281 44.908938 C -4.493531 44.908938 -2.391969 47.014406 -2.391969 49.608156 Z M -2.391969 49.608156 " transform="matrix(1,0,0,-1,39.974,93.323)"/>
<path style="fill:none;stroke-width:0.59776;stroke-linecap:butt;stroke-linejoin:miter;stroke:rgb(100%,100%,100%);stroke-opacity:1;stroke-miterlimit:10;" d="M -2.391969 49.608156 C -2.391969 52.201906 -4.493531 54.303469 -7.087281 54.303469 C -9.681031 54.303469 -11.782594 52.201906 -11.782594 49.608156 C -11.782594 47.014406 -9.681031 44.908938 -7.087281 44.908938 C -4.493531 44.908938 -2.391969 47.014406 -2.391969 49.608156 Z M -2.391969 49.608156 " transform="matrix(1,0,0,-1,39.974,93.323)"/>
<path style="fill-rule:nonzero;fill:rgb(90.979004%,64.704895%,64.704895%);fill-opacity:1;stroke-width:1.39478;stroke-linecap:butt;stroke-linejoin:miter;stroke:rgb(0%,0%,0%);stroke-opacity:1;stroke-miterlimit:10;" d="M 11.783813 49.608156 C 11.783813 52.201906 9.68225 54.303469 7.0885 54.303469 C 4.49475 54.303469 2.389281 52.201906 2.389281 49.608156 C 2.389281 47.014406 4.49475 44.908938 7.0885 44.908938 C 9.68225 44.908938 11.783813 47.014406 11.783813 49.608156 Z M 11.783813 49.608156 " transform="matrix(1,0,0,-1,39.974,93.323)"/>
<path style="fill:none;stroke-width:0.59776;stroke-linecap:butt;stroke-linejoin:miter;stroke:rgb(100%,100%,100%);stroke-opacity:1;stroke-miterlimit:10;" d="M 11.783813 49.608156 C 11.783813 52.201906 9.68225 54.303469 7.0885 54.303469 C 4.49475 54.303469 2.389281 52.201906 2.389281 49.608156 C 2.389281 47.014406 4.49475 44.908938 7.0885 44.908938 C 9.68225 44.908938 11.783813 47.014406 11.783813 49.608156 Z M 11.783813 49.608156 " transform="matrix(1,0,0,-1,39.974,93.323)"/>
<path style=" stroke:none;fill-rule:nonzero;fill:rgb(90.979004%,64.704895%,64.704895%);fill-opacity:1;" d="M 108.449219 72.0625 C 108.449219 69.46875 106.347656 67.367188 103.753906 67.367188 C 101.160156 67.367188 99.058594 69.46875 99.058594 72.0625 C 99.058594 74.65625 101.160156 76.757812 103.753906 76.757812 C 106.347656 76.757812 108.449219 74.65625 108.449219 72.0625 Z M 108.449219 72.0625 "/>
<g clip-path="url(#clip6)" clip-rule="nonzero">
<path style="fill:none;stroke-width:1.39478;stroke-linecap:butt;stroke-linejoin:miter;stroke:rgb(0%,0%,0%);stroke-opacity:1;stroke-miterlimit:10;" d="M 68.475219 21.2605 C 68.475219 23.85425 66.373656 25.955813 63.779906 25.955813 C 61.186156 25.955813 59.084594 23.85425 59.084594 21.2605 C 59.084594 18.66675 61.186156 16.565188 63.779906 16.565188 C 66.373656 16.565188 68.475219 18.66675 68.475219 21.2605 Z M 68.475219 21.2605 " transform="matrix(1,0,0,-1,39.974,93.323)"/>
</g>
<g clip-path="url(#clip7)" clip-rule="nonzero">
<path style="fill:none;stroke-width:0.59776;stroke-linecap:butt;stroke-linejoin:miter;stroke:rgb(100%,100%,100%);stroke-opacity:1;stroke-miterlimit:10;" d="M 68.475219 21.2605 C 68.475219 23.85425 66.373656 25.955813 63.779906 25.955813 C 61.186156 25.955813 59.084594 23.85425 59.084594 21.2605 C 59.084594 18.66675 61.186156 16.565188 63.779906 16.565188 C 66.373656 16.565188 68.475219 18.66675 68.475219 21.2605 Z M 68.475219 21.2605 " transform="matrix(1,0,0,-1,39.974,93.323)"/>
</g>
<path style=" stroke:none;fill-rule:nonzero;fill:rgb(84.70459%,97.254944%,84.70459%);fill-opacity:1;" d="M 108.449219 57.890625 C 108.449219 55.296875 106.347656 53.191406 103.753906 53.191406 C 101.160156 53.191406 99.058594 55.296875 99.058594 57.890625 C 99.058594 60.484375 101.160156 62.585938 103.753906 62.585938 C 106.347656 62.585938 108.449219 60.484375 108.449219 57.890625 Z M 108.449219 57.890625 "/>
<g clip-path="url(#clip8)" clip-rule="nonzero">
<path style="fill:none;stroke-width:1.39478;stroke-linecap:butt;stroke-linejoin:miter;stroke:rgb(0%,0%,0%);stroke-opacity:1;stroke-miterlimit:10;" d="M 68.475219 35.432375 C 68.475219 38.026125 66.373656 40.131594 63.779906 40.131594 C 61.186156 40.131594 59.084594 38.026125 59.084594 35.432375 C 59.084594 32.838625 61.186156 30.737063 63.779906 30.737063 C 66.373656 30.737063 68.475219 32.838625 68.475219 35.432375 Z M 68.475219 35.432375 " transform="matrix(1,0,0,-1,39.974,93.323)"/>
</g>
<g clip-path="url(#clip9)" clip-rule="nonzero">
<path style="fill:none;stroke-width:0.59776;stroke-linecap:butt;stroke-linejoin:miter;stroke:rgb(100%,100%,100%);stroke-opacity:1;stroke-miterlimit:10;" d="M 68.475219 35.432375 C 68.475219 38.026125 66.373656 40.131594 63.779906 40.131594 C 61.186156 40.131594 59.084594 38.026125 59.084594 35.432375 C 59.084594 32.838625 61.186156 30.737063 63.779906 30.737063 C 66.373656 30.737063 68.475219 32.838625 68.475219 35.432375 Z M 68.475219 35.432375 " transform="matrix(1,0,0,-1,39.974,93.323)"/>
</g>
<path style="fill-rule:nonzero;fill:rgb(84.70459%,97.254944%,84.70459%);fill-opacity:1;stroke-width:0.3985;stroke-linecap:butt;stroke-linejoin:miter;stroke:rgb(0%,0%,0%);stroke-opacity:1;stroke-miterlimit:10;" d="M 40.131469 21.2605 C 40.131469 23.85425 38.026 25.955813 35.43225 25.955813 C 32.8385 25.955813 30.736938 23.85425 30.736938 21.2605 C 30.736938 18.66675 32.8385 16.565188 35.43225 16.565188 C 38.026 16.565188 40.131469 18.66675 40.131469 21.2605 Z M 40.131469 21.2605 " transform="matrix(1,0,0,-1,39.974,93.323)"/>
<path style="fill-rule:nonzero;fill:rgb(90.979004%,64.704895%,64.704895%);fill-opacity:1;stroke-width:0.3985;stroke-linecap:butt;stroke-linejoin:miter;stroke:rgb(0%,0%,0%);stroke-opacity:1;stroke-miterlimit:10;" d="M 25.955688 35.432375 C 25.955688 38.026125 23.854125 40.131594 21.260375 40.131594 C 18.666625 40.131594 16.565063 38.026125 16.565063 35.432375 C 16.565063 32.838625 18.666625 30.737063 21.260375 30.737063 C 23.854125 30.737063 25.955688 32.838625 25.955688 35.432375 Z M 25.955688 35.432375 " transform="matrix(1,0,0,-1,39.974,93.323)"/>
<path style="fill-rule:nonzero;fill:rgb(90.979004%,64.704895%,64.704895%);fill-opacity:1;stroke-width:0.3985;stroke-linecap:butt;stroke-linejoin:miter;stroke:rgb(0%,0%,0%);stroke-opacity:1;stroke-miterlimit:10;" d="M 54.303344 35.432375 C 54.303344 38.026125 52.201781 40.131594 49.608031 40.131594 C 47.014281 40.131594 44.908813 38.026125 44.908813 35.432375 C 44.908813 32.838625 47.014281 30.737063 49.608031 30.737063 C 52.201781 30.737063 54.303344 32.838625 54.303344 35.432375 Z M 54.303344 35.432375 " transform="matrix(1,0,0,-1,39.974,93.323)"/>
<path style="fill-rule:nonzero;fill:rgb(84.70459%,97.254944%,84.70459%);fill-opacity:1;stroke-width:0.3985;stroke-linecap:butt;stroke-linejoin:miter;stroke:rgb(0%,0%,0%);stroke-opacity:1;stroke-miterlimit:10;" d="M 54.303344 21.2605 C 54.303344 23.85425 52.201781 25.955813 49.608031 25.955813 C 47.014281 25.955813 44.908813 23.85425 44.908813 21.2605 C 44.908813 18.66675 47.014281 16.565188 49.608031 16.565188 C 52.201781 16.565188 54.303344 18.66675 54.303344 21.2605 Z M 54.303344 21.2605 " transform="matrix(1,0,0,-1,39.974,93.323)"/>
<path style="fill-rule:nonzero;fill:rgb(90.979004%,64.704895%,64.704895%);fill-opacity:1;stroke-width:1.39478;stroke-linecap:butt;stroke-linejoin:miter;stroke:rgb(0%,0%,0%);stroke-opacity:1;stroke-miterlimit:10;" d="M 11.783813 63.780031 C 11.783813 66.373781 9.68225 68.475344 7.0885 68.475344 C 4.49475 68.475344 2.389281 66.373781 2.389281 63.780031 C 2.389281 61.186281 4.49475 59.084719 7.0885 59.084719 C 9.68225 59.084719 11.783813 61.186281 11.783813 63.780031 Z M 11.783813 63.780031 " transform="matrix(1,0,0,-1,39.974,93.323)"/>
<path style="fill:none;stroke-width:0.59776;stroke-linecap:butt;stroke-linejoin:miter;stroke:rgb(100%,100%,100%);stroke-opacity:1;stroke-miterlimit:10;" d="M 11.783813 63.780031 C 11.783813 66.373781 9.68225 68.475344 7.0885 68.475344 C 4.49475 68.475344 2.389281 66.373781 2.389281 63.780031 C 2.389281 61.186281 4.49475 59.084719 7.0885 59.084719 C 9.68225 59.084719 11.783813 61.186281 11.783813 63.780031 Z M 11.783813 63.780031 " transform="matrix(1,0,0,-1,39.974,93.323)"/>
<path style="fill-rule:nonzero;fill:rgb(84.70459%,97.254944%,84.70459%);fill-opacity:1;stroke-width:1.39478;stroke-linecap:butt;stroke-linejoin:miter;stroke:rgb(0%,0%,0%);stroke-opacity:1;stroke-miterlimit:10;" d="M 11.783813 77.951906 C 11.783813 80.545656 9.68225 82.651125 7.0885 82.651125 C 4.49475 82.651125 2.389281 80.545656 2.389281 77.951906 C 2.389281 75.358156 4.49475 73.256594 7.0885 73.256594 C 9.68225 73.256594 11.783813 75.358156 11.783813 77.951906 Z M 11.783813 77.951906 " transform="matrix(1,0,0,-1,39.974,93.323)"/>
<path style="fill:none;stroke-width:0.59776;stroke-linecap:butt;stroke-linejoin:miter;stroke:rgb(100%,100%,100%);stroke-opacity:1;stroke-miterlimit:10;" d="M 11.783813 77.951906 C 11.783813 80.545656 9.68225 82.651125 7.0885 82.651125 C 4.49475 82.651125 2.389281 80.545656 2.389281 77.951906 C 2.389281 75.358156 4.49475 73.256594 7.0885 73.256594 C 9.68225 73.256594 11.783813 75.358156 11.783813 77.951906 Z M 11.783813 77.951906 " transform="matrix(1,0,0,-1,39.974,93.323)"/>
<path style="fill-rule:nonzero;fill:rgb(84.70459%,97.254944%,84.70459%);fill-opacity:1;stroke-width:0.3985;stroke-linecap:butt;stroke-linejoin:miter;stroke:rgb(0%,0%,0%);stroke-opacity:1;stroke-miterlimit:10;" d="M 40.131469 63.780031 C 40.131469 66.373781 38.026 68.475344 35.43225 68.475344 C 32.8385 68.475344 30.736938 66.373781 30.736938 63.780031 C 30.736938 61.186281 32.8385 59.084719 35.43225 59.084719 C 38.026 59.084719 40.131469 61.186281 40.131469 63.780031 Z M 40.131469 63.780031 " transform="matrix(1,0,0,-1,39.974,93.323)"/>
<path style="fill-rule:nonzero;fill:rgb(90.979004%,64.704895%,64.704895%);fill-opacity:1;stroke-width:0.3985;stroke-linecap:butt;stroke-linejoin:miter;stroke:rgb(0%,0%,0%);stroke-opacity:1;stroke-miterlimit:10;" d="M 25.955688 77.951906 C 25.955688 80.545656 23.854125 82.651125 21.260375 82.651125 C 18.666625 82.651125 16.565063 80.545656 16.565063 77.951906 C 16.565063 75.358156 18.666625 73.256594 21.260375 73.256594 C 23.854125 73.256594 25.955688 75.358156 25.955688 77.951906 Z M 25.955688 77.951906 " transform="matrix(1,0,0,-1,39.974,93.323)"/>
</g>
</svg>
