<?xml version="1.0" encoding="UTF-8"?>
<svg width="283.4" height="283.4" version="1.1" viewBox="0 0 283.4 283.4" xmlns="http://www.w3.org/2000/svg">
 <g transform="translate(-157.4,-319.5)">
  <path d="m440.8 461.2c0 78.3-63.5 141.7-141.7 141.7s-141.7-63.5-141.7-141.7 63.5-141.7 141.7-141.7 141.7 63.5 141.7 141.7z" fill="#005699"/>
  <path d="m192.4 461.2c0 58.8 47.9 106.7 106.7 106.7s106.7-47.9 106.7-106.7-47.9-106.7-106.7-106.7-106.7 47.9-106.7 106.7z" fill="#fff"/>
  <polygon points="219.2 508.8 296 464.6 257.7 442.4" fill="#005699"/>
  <polygon points="340.2 439.2 302 372.8 302 461.2" fill="#005699"/>
  <polygon points="298.1 461.4 298.1 372.7 259.6 439.1" fill="#00a7ea"/>
  <polygon points="378.2 512.4 302 468.1 302 512.2" fill="#005699"/>
  <polygon points="342.1 442.5 303.7 464.6 380.5 509.2" fill="#00a7ea"/>
  <polygon points="298.1 512.2 298.1 467.9 221.1 512.1" fill="#00a7ea"/>
 </g>
</svg>
