<?xml version="1.0" encoding="utf-8"?>
<!-- Generator: Adobe Illustrator 23.0.4, SVG Export Plug-In . SVG Version: 6.00 Build 0)  -->
<svg version="1.1" xmlns="http://www.w3.org/2000/svg" xmlns:xlink="http://www.w3.org/1999/xlink" x="0px" y="0px"
	 viewBox="0 0 260 260" enable-background="new 0 0 260 260" xml:space="preserve">
<g id="圖層_1">
	<rect fill="#002147" width="260" height="260"/>
</g>
<g id="圖層_2">
	<g>
		<path fill="#FFFFFF" stroke="#FFFFFF" stroke-width="5" stroke-miterlimit="10" d="M117.85,67.01c0-5.69,0.52-7.24,12.41-7.24
			h3.62v-4.66H28.37v4.66h3.62c11.9,0,12.41,1.55,12.41,7.24v80.69c0,5.69-0.52,7.24-12.41,7.24h-3.62v5.17
			c5.69-0.52,17.07-0.52,22.76-0.52c5.69,0,17.59,0,22.76,0.52v-5.17h-3.62c-11.9,0-12.41-1.55-12.41-7.24V59.77h46.55v87.93
			c0,5.69-0.52,7.24-12.41,7.24h-3.62v5.17c5.17-0.52,16.55-0.52,22.76-0.52c5.69,0,17.59,0,22.76,0.52v-5.17h-3.62
			c-11.9,0-12.41-1.55-12.41-7.24V67.01"/>
		<path opacity="0" fill="none" stroke="#000000" stroke-width="0" stroke-miterlimit="10" d="M77.92,173.44L77.92,173.44z"/>
	</g>
	<polygon opacity="0" fill="none" stroke="#000000" stroke-width="1.000000e-06" stroke-miterlimit="10" points="33,205 33,205 
		33,205 33,205 33,205 33,205 33,205 33,205 33,205 33,205 33,205 33,205 33,205 33,205 33,205 33,205 33,205 33,205 33,205 33,205 
		33,205 33,205 33,205 33,205 33,205 33,205 33,205 33,205 33,205 33,205 33,205 33,205 33,205 33,205 33,205 33,205 33,205 33,205 
		33,205 33,205 33,205 33,205 33,205 33,205 33,205 33,205 33,205 33,205 33,205 33,205 33,205 33,205 33,205 33,205 33,205 33,205 
		33,205 33,205 33,205 33,205 33,205 33,205 33,205 33,205 33,205 33,205 33,205 33,205 33,205 33,205 33,205 33,205 33,205 33,205 
		33,205 33,205 33,205 33,205 33,205 33,205 33,205 33,205 33,205 33,205 33,205 	"/>
	<g>
		<path fill="#FFFFFF" stroke="#FFFFFF" stroke-width="5" stroke-miterlimit="10" d="M187.01,153.76c1.54-1.54,1.54-2.06,1.54-2.06
			c0-1.03-1.03-1.54-1.03-2.57l-31.91-45.29h35.51c26.25,0,33.97,5.66,37.06,29.85h3.6l-4.12-34.49h-85.44c-3.6,0-3.6,0-3.6,3.6
			l38.09,55.59l-36.54,41.69c-1.54,1.54-1.54,2.06-1.54,2.06c0,2.06,1.54,2.06,3.6,2.06h85.44l4.12-36.54h-3.6
			c-2.57,25.74-13.38,29.85-37.57,29.85H148.4L187.01,153.76"/>
		<path opacity="0" fill="none" stroke="#000000" stroke-width="0" stroke-miterlimit="10" d="M185.35,151.7L185.35,151.7z"/>
	</g>
	<polygon opacity="0" fill="none" stroke="#000000" stroke-width="1.000000e-06" stroke-miterlimit="10" points="195,70 195,70 
		195,70 195,70 195,70 195,70 195,70 195,70 195,70 195,70 195,70 195,70 195,70 195,70 195,70 195,70 195,70 195,70 195,70 195,70 
		195,70 195,70 195,70 195,70 195,70 195,70 195,70 195,70 195,70 195,70 195,70 195,70 195,70 195,70 195,70 195,70 195,70 195,70 
		195,70 195,70 195,70 195,70 195,70 195,70 195,70 195,70 195,70 195,70 195,70 195,70 195,70 195,70 195,70 195,70 195,70 195,70 
		195,70 195,70 195,70 195,70 195,70 195,70 195,70 195,70 195,70 195,70 195,70 195,70 195,70 195,70 195,70 195,70 195,70 195,70 
		195,70 195,70 195,70 195,70 195,70 195,70 195,70 195,70 195,70 195,70 195,70 195,70 	"/>
</g>
</svg>
