<?xml version="1.0" standalone="no"?>
<!DOCTYPE svg PUBLIC "-//W3C//DTD SVG 20010904//EN"
 "http://www.w3.org/TR/2001/REC-SVG-20010904/DTD/svg10.dtd">
<svg version="1.0" xmlns="http://www.w3.org/2000/svg"
 width="260.000000pt" height="260.000000pt" viewBox="0 0 260.000000 260.000000"
 preserveAspectRatio="xMidYMid meet">
<metadata>
Created by potrace 1.11, written by Peter Selinger 2001-2013
</metadata>
<g transform="translate(0.000000,260.000000) scale(0.100000,-0.100000)"
fill="#000000" stroke="none">
<path d="M0 1300 l0 -1300 1300 0 1300 0 0 1300 0 1300 -1300 0 -1300 0 0
-1300z m1370 720 l0 -49 -77 -3 -78 -3 -3 -434 c-1 -239 2 -439 6 -443 5 -5
41 -12 80 -15 l72 -6 0 -46 0 -46 -255 0 -255 0 0 48 0 47 43 0 c23 0 59 3 80
6 l37 7 0 443 0 444 -205 0 -205 0 0 -444 0 -443 46 -7 c26 -3 62 -6 80 -6 34
0 34 0 34 -47 l0 -48 -255 0 -255 0 0 46 0 46 72 6 c39 3 75 10 80 15 4 4 7
204 6 443 l-3 434 -77 3 -78 3 0 49 0 50 555 0 555 0 0 -50z m944 -547 c9 -87
20 -175 23 -195 l6 -38 -45 0 -45 0 -6 48 c-15 112 -48 173 -117 212 -44 24
-51 25 -277 28 -128 2 -233 1 -233 -3 0 -4 61 -95 136 -202 75 -108 141 -208
147 -223 12 -31 22 -18 -231 -309 l-123 -141 244 0 c260 0 316 8 371 51 38 30
67 92 80 174 l12 70 44 3 43 3 -6 -43 c-3 -24 -14 -118 -23 -210 l-18 -168
-451 0 c-469 0 -475 1 -475 41 0 10 83 114 184 231 l184 213 -184 272 c-106
158 -184 283 -184 296 0 47 -3 47 475 47 l451 0 18 -157z"/>
</g>
</svg>
